<svg width="0" height="0" class="hidden">

<symbol xmlns="http://www.w3.org/2000/svg" id="comment-active"  viewBox="0 0 512 512">
<path d="M76.83 480a25.69 25.69 0 01-25.57-25.74 29.13 29.13 0 011.2-7.63L70.88 380c.77-2.46-.1-4.94-1.23-6.9l-.22-.4c-.08-.13-.46-.66-.73-1.05s-.58-.81-.86-1.22l-.19-.27A215.66 215.66 0 0132 251.37c-.18-57.59 22.35-112 63.46-153.28C138 55.47 194.9 32 255.82 32A227.4 227.4 0 01398 81.84c39.45 31.75 66.87 76 77.21 124.68a213.5 213.5 0 014.78 45c0 58.93-22.64 114.28-63.76 155.87-41.48 42-97.18 65.06-156.83 65.06-21 0-47.87-5.36-60.77-9-15.52-4.34-30.23-10-31.85-10.6a15.12 15.12 0 00-5.37-1 14.75 14.75 0 00-5.8 1.15l-.85.33-67.48 24.38A29.44 29.44 0 0176.83 480zm-2-31.8zM87.48 380z"></path></symbol>



<symbol xmlns="http://www.w3.org/2000/svg" id="addMedia" fill="#262626" viewBox="0 0 97.6 77.3">
  <path d="M16.3 24h.3c2.8-.2 4.9-2.6 4.8-5.4-.2-2.8-2.6-4.9-5.4-4.8s-4.9 2.6-4.8 5.4c.1 2.7 2.4 4.8 5.1 4.8zm-2.4-7.2c.5-.6 1.3-1 2.1-1h.2c1.7 0 3.1 1.4 3.1 3.1 0 1.7-1.4 3.1-3.1 3.1-1.7 0-3.1-1.4-3.1-3.1 0-.8.3-1.5.8-2.1z"></path><path d="M84.7 18.4L58 16.9l-.2-3c-.3-5.7-5.2-10.1-11-9.8L12.9 6c-5.7.3-10.1 5.3-9.8 11L5 51v.8c.7 5.2 5.1 9.1 10.3 9.1h.6l21.7-1.2v.6c-.3 5.7 4 10.7 9.8 11l34 2h.6c5.5 0 10.1-4.3 10.4-9.8l2-34c.4-5.8-4-10.7-9.7-11.1zM7.2 10.8C8.7 9.1 10.8 8.1 13 8l34-1.9c4.6-.3 8.6 3.3 8.9 7.9l.2 2.8-5.3-.3c-5.7-.3-10.7 4-11 9.8l-.6 9.5-9.5 10.7c-.2.3-.6.4-1 .5-.4 0-.7-.1-1-.4l-7.8-7c-1.4-1.3-3.5-1.1-4.8.3L7 49 5.2 17c-.2-2.3.6-4.5 2-6.2zm8.7 48c-4.3.2-8.1-2.8-8.8-7.1l9.4-10.5c.2-.3.6-.4 1-.5.4 0 .7.1 1 .4l7.8 7c.7.6 1.6.9 2.5.9.9 0 1.7-.5 2.3-1.1l7.8-8.8-1.1 18.6-21.9 1.1zm76.5-29.5l-2 34c-.3 4.6-4.3 8.2-8.9 7.9l-34-2c-4.6-.3-8.2-4.3-7.9-8.9l2-34c.3-4.4 3.9-7.9 8.4-7.9h.5l34 2c4.7.3 8.2 4.3 7.9 8.9z"></path><path d="M78.2 41.6L61.3 30.5c-2.1-1.4-4.9-.8-6.2 1.3-.4.7-.7 1.4-.7 2.2l-1.2 20.1c-.1 2.5 1.7 4.6 4.2 4.8h.3c.7 0 1.4-.2 2-.5l18-9c2.2-1.1 3.1-3.8 2-6-.4-.7-.9-1.3-1.5-1.8zm-1.4 6l-18 9c-.4.2-.8.3-1.3.3-.4 0-.9-.2-1.2-.4-.7-.5-1.2-1.3-1.1-2.2l1.2-20.1c.1-.9.6-1.7 1.4-2.1.8-.4 1.7-.3 2.5.1L77 43.3c1.2.8 1.5 2.3.7 3.4-.2.4-.5.7-.9.9z">
  </path>
</symbol>
<symbol xmlns="http://www.w3.org/2000/svg" id="plus" fill="#8e8e8e" viewBox="0 0 24 24">
  <path d="M21 11.3h-8.2V3c0-.4-.3-.8-.8-.8s-.8.4-.8.8v8.2H3c-.4 0-.8.3-.8.8s.3.8.8.8h8.2V21c0 .4.3.8.8.8s.8-.3.8-.8v-8.2H21c.4 0 .8-.3.8-.8s-.4-.7-.8-.7z">
  </path>
</symbol>
<symbol xmlns="http://www.w3.org/2000/svg" id="clear" fill="#ffffff" viewBox="0 0 24 24">
  <path d="M22.213 4.072H16.83V2.526A2.53 2.53 0 0014.303 0H9.707a2.53 2.53 0 00-2.526 2.526v1.546H1.787a.75.75 0 00-.75.75v1a.75.75 0 00.75.75h20.426a.75.75 0 00.75-.75v-1a.75.75 0 00-.75-.75zm-7.883 0H9.684L9.707 2.5l4.623.026zm5.611 4H4.059a.75.75 0 00-.744.843l1.61 12.864A2.536 2.536 0 007.44 24h9.118a2.54 2.54 0 002.517-2.221l1.61-12.864a.75.75 0 00-.745-.843z">
  </path>
</symbol>
<symbol xmlns="http://www.w3.org/2000/svg" id="close" viewBox="0 0 48 48">
  <path clip-rule="evenodd" d="M41.1 9.1l-15 15L41 39c.6.6.6 1.5 0 2.1s-1.5.6-2.1 0L24 26.1l-14.9 15c-.6.6-1.5.6-2.1 0-.6-.6-.6-1.5 0-2.1l14.9-15-15-15c-.6-.6-.6-1.5 0-2.1s1.5-.6 2.1 0l15 15 15-15c.6-.6 1.5-.6 2.1 0 .6.6.6 1.6 0 2.2z" fill-rule="evenodd">
  </path>
</symbol>
<symbol xmlns="http://www.w3.org/2000/svg"  id="arrow" fill="#262626"  viewBox="0 0 48 48" >
  <path d="M40 33.5c-.4 0-.8-.1-1.1-.4L24 18.1l-14.9 15c-.6.6-1.5.6-2.1 0s-.6-1.5 0-2.1l16-16c.6-.6 1.5-.6 2.1 0l16 16c.6.6.6 1.5 0 2.1-.3.3-.7.4-1.1.4z">
  </path>
</symbol>
<symbol
  xmlns="http://www.w3.org/2000/svg"
  id="error"
  viewBox="0 0 24 24"
  fill="none"
>
  <path
    d="M16.3394 9.32245C16.7434 8.94589 16.7657 8.31312 16.3891 7.90911C16.0126 7.50509 15.3798 7.48283 14.9758 7.85938L12.0497 10.5866L9.32245 7.66048C8.94589 7.25647 8.31312 7.23421 7.90911 7.61076C7.50509 7.98731 7.48283 8.62008 7.85938 9.0241L10.5866 11.9502L7.66048 14.6775C7.25647 15.054 7.23421 15.6868 7.61076 16.0908C7.98731 16.4948 8.62008 16.5171 9.0241 16.1405L11.9502 13.4133L14.6775 16.3394C15.054 16.7434 15.6868 16.7657 16.0908 16.3891C16.4948 16.0126 16.5171 15.3798 16.1405 14.9758L13.4133 12.0497L16.3394 9.32245Z"
    fill="#ee2d3e"
  />
  <path
    fill-rule="evenodd"
    clip-rule="#ee2d3e"
    d="M1 12C1 5.92487 5.92487 1 12 1C18.0751 1 23 5.92487 23 12C23 18.0751 18.0751 23 12 23C5.92487 23 1 18.0751 1 12ZM12 21C7.02944 21 3 16.9706 3 12C3 7.02944 7.02944 3 12 3C16.9706 3 21 7.02944 21 12C21 16.9706 16.9706 21 12 21Z"
    fill="#ee2d3e"
  />
</symbol>
<symbol
  xmlns="http://www.w3.org/2000/svg"
  id="check"
  viewBox="0 0 24 24"
  fill="#78de45"
>
  <path
    d="M10.2426 16.3137L6 12.071L7.41421 10.6568L10.2426 13.4853L15.8995 7.8284L17.3137 9.24262L10.2426 16.3137Z"
    fill="#78de45"
  />
  <path
    fill-rule="evenodd"
    clip-rule="evenodd"
    d="M1 12C1 5.92487 5.92487 1 12 1C18.0751 1 23 5.92487 23 12C23 18.0751 18.0751 23 12 23C5.92487 23 1 18.0751 1 12ZM12 21C7.02944 21 3 16.9706 3 12C3 7.02944 7.02944 3 12 3C16.9706 3 21 7.02944 21 12C21 16.9706 16.9706 21 12 21Z"
    fill="#78de45"
  />
</symbol> 
<symbol xmlns="http://www.w3.org/2000/svg"  id="user" fill="#262626" viewBox="0 0 32 32">
  <path d="M16 0C7.2 0 0 7.1 0 16c0 4.8 2.1 9.1 5.5 12l.3.3C8.5 30.6 12.1 32 16 32s7.5-1.4 10.2-3.7l.3-.3c3.4-3 5.5-7.2 5.5-12 0-8.9-7.2-16-16-16zm0 29c-2.8 0-5.3-.9-7.5-2.4.5-.9.9-1.3 1.4-1.8.7-.5 1.5-.8 2.4-.8h7.2c.9 0 1.7.3 2.4.8.5.4.9.8 1.4 1.8-2 1.5-4.5 2.4-7.3 2.4zm9.7-4.4c-.5-.9-1.1-1.5-1.9-2.1-1.2-.9-2.7-1.4-4.2-1.4h-7.2c-1.5 0-3 .5-4.2 1.4-.8.6-1.4 1.2-1.9 2.1C4.2 22.3 3 19.3 3 16 3 8.8 8.8 3 16 3s13 5.8 13 13c0 3.3-1.2 6.3-3.3 8.6zM16 5.7c-3.9 0-7 3.1-7 7s3.1 7 7 7 7-3.1 7-7-3.1-7-7-7zm0 11c-2.2 0-4-1.8-4-4s1.8-4 4-4 4 1.8 4 4-1.8 4-4 4z" />
</symbol>
<symbol
     xmlns="http://www.w3.org/2000/svg" id="smile"
      fill="#262626"
      viewBox="0 0 48 48"
    >
      <path d="M24 48C10.8 48 0 37.2 0 24S10.8 0 24 0s24 10.8 24 24-10.8 24-24 24zm0-45C12.4 3 3 12.4 3 24s9.4 21 21 21 21-9.4 21-21S35.6 3 24 3z" />
      <path d="M34.9 24c0-1.4-1.1-2.5-2.5-2.5s-2.5 1.1-2.5 2.5 1.1 2.5 2.5 2.5 2.5-1.1 2.5-2.5zm-21.8 0c0-1.4 1.1-2.5 2.5-2.5s2.5 1.1 2.5 2.5-1.1 2.5-2.5 2.5-2.5-1.1-2.5-2.5zM24 37.3c-5.2 0-8-3.5-8.2-3.7-.5-.6-.4-1.6.2-2.1.6-.5 1.6-.4 2.1.2.1.1 2.1 2.5 5.8 2.5 3.7 0 5.8-2.5 5.8-2.5.5-.6 1.5-.7 2.1-.2.6.5.7 1.5.2 2.1 0 .2-2.8 3.7-8 3.7z" />
</symbol>
<symbol xmlns="http://www.w3.org/2000/svg" id="settings"
      fill="#262626"
      viewBox="0 0 32 32"
    >
      <path d="M31.2 13.4l-1.4-.7c-.1 0-.2-.1-.2-.2v-.2c-.3-1.1-.7-2.1-1.3-3.1v-.1l-.2-.1v-.3l.5-1.5c.2-.5 0-1.1-.4-1.5l-1.9-1.9c-.4-.4-1-.5-1.5-.4l-1.5.5H23l-.1-.1h-.1c-1-.5-2-1-3.1-1.3h-.2c-.1 0-.1-.1-.2-.2L18.6.9c-.2-.5-.7-.9-1.2-.9h-2.7c-.5 0-1 .3-1.3.8l-.7 1.4c0 .1-.1.2-.2.2h-.2c-1.1.3-2.1.7-3.1 1.3h-.1l-.1.2h-.3l-1.5-.5c-.5-.2-1.1 0-1.5.4L3.8 5.7c-.4.4-.5 1-.4 1.5l.5 1.5v.5c-.5 1-1 2-1.3 3.1v.2c0 .1-.1.1-.2.2l-1.4.7c-.6.2-1 .7-1 1.2v2.7c0 .5.3 1 .8 1.3l1.4.7c.1 0 .2.1.2.2v.2c.3 1.1.7 2.1 1.3 3.1v.1l.2.1v.3l-.5 1.5c-.2.5 0 1.1.4 1.5l1.9 1.9c.3.3.6.4 1 .4.2 0 .3 0 .5-.1l1.5-.5H9l.1.1h.1c1 .5 2 1 3.1 1.3h.2c.1 0 .1.1.2.2l.7 1.4c.2.5.7.8 1.3.8h2.7c.5 0 1-.3 1.3-.8l.7-1.4c0-.1.1-.2.2-.2h.2c1.1-.3 2.1-.7 3.1-1.3h.1l.1-.1h.3l1.5.5c.1 0 .3.1.5.1.4 0 .7-.1 1-.4l1.9-1.9c.4-.4.5-1 .4-1.5l-.5-1.5V23l.1-.1v-.1c.5-1 1-2 1.3-3.1v-.2c0-.1.1-.1.2-.2l1.4-.7c.5-.2.8-.7.8-1.3v-2.7c0-.5-.4-1-.8-1.2zM16 27.1c-6.1 0-11.1-5-11.1-11.1S9.9 4.9 16 4.9s11.1 5 11.1 11.1-5 11.1-11.1 11.1z" />
</symbol>
<symbol xmlns="http://www.w3.org/2000/svg" id="search-active" fill="#262626" viewBox="0 0 48 48" >
        <path d="M47.6 44L35.8 32.2C38.4 28.9 40 24.6 40 20 40 9 31 0 20 0S0 9 0 20s9 20 20 20c4.6 0 8.9-1.6 12.2-4.2L44 47.6c.6.6 1.5.6 2.1 0l1.4-1.4c.6-.6.6-1.6.1-2.2zM20 35c-8.3 0-15-6.7-15-15S11.7 5 20 5s15 6.7 15 15-6.7 15-15 15z" />
</symbol>
<symbol xmlns="http://www.w3.org/2000/svg" id="search" fill="#262626" viewBox="0 0 48 48">
      <path d="M20 40C9 40 0 31 0 20S9 0 20 0s20 9 20 20-9 20-20 20zm0-37C10.6 3 3 10.6 3 20s7.6 17 17 17 17-7.6 17-17S29.4 3 20 3z" />
      <path d="M46.6 48.1c-.4 0-.8-.1-1.1-.4L32 34.2c-.6-.6-.6-1.5 0-2.1s1.5-.6 2.1 0l13.5 13.5c.6.6.6 1.5 0 2.1-.2.3-.6.4-1 .4z" />
</symbol>
<symbol  xmlns="http://www.w3.org/2000/svg" id="saved"
      fill="#262626"
      viewBox="0 0 48 48"
      data-selected="true"
      data-label-id="0"
      data-metatip="true"
    >
      <path d="M43.5 48c-.4 0-.8-.2-1.1-.4L24 29 5.6 47.6c-.4.4-1.1.6-1.6.3-.6-.2-1-.8-1-1.4v-45C3 .7 3.7 0 4.5 0h39c.8 0 1.5.7 1.5 1.5v45c0 .6-.4 1.2-.9 1.4-.2.1-.4.1-.6.1zM24 26c.8 0 1.6.3 2.2.9l15.8 16V3H6v39.9l15.8-16c.6-.6 1.4-.9 2.2-.9z" />
</symbol>
<symbol xmlns="http://www.w3.org/2000/svg" id="posts"
      fill="#262626"
      viewBox="0 0 48 48"
    >
      <path
        clipRule="evenodd"
        d="M45 1.5H3c-.8 0-1.5.7-1.5 1.5v42c0 .8.7 1.5 1.5 1.5h42c.8 0 1.5-.7 1.5-1.5V3c0-.8-.7-1.5-1.5-1.5zm-40.5 3h11v11h-11v-11zm0 14h11v11h-11v-11zm11 25h-11v-11h11v11zm14 0h-11v-11h11v11zm0-14h-11v-11h11v11zm0-14h-11v-11h11v11zm14 28h-11v-11h11v11zm0-14h-11v-11h11v11zm0-14h-11v-11h11v11z"
        fillRule="evenodd"
      />
</symbol>
<symbol xmlns="http://www.w3.org/2000/svg" id="photo"
      fill="#262626"
      viewBox="0 0 48 48"
    >
      <path d="M38.5 0h-29C4.3 0 0 4.3 0 9.5v29C0 43.7 4.3 48 9.5 48h29c5.2 0 9.5-4.3 9.5-9.5v-29C48 4.3 43.7 0 38.5 0zM45 38.5c0 3.6-2.9 6.5-6.5 6.5h-29c-3.3 0-6-2.5-6.4-5.6l8.3-8.3c.1-.1.3-.2.4-.2.1 0 .2 0 .4.2l6.3 6.3c1.4 1.4 3.6 1.4 5 0L35.9 25c.2-.2.6-.2.8 0l8.3 8.3v5.2zm0-9.4l-6.2-6.2c-1.3-1.3-3.7-1.3-5 0L21.3 35.3c-.1.1-.3.2-.4.2-.1 0-.2 0-.4-.2L14.2 29c-1.3-1.3-3.7-1.3-5 0L3 35.2V9.5C3 5.9 5.9 3 9.5 3h29C42.1 3 45 5.9 45 9.5v19.6zM11.8 8.2c-1.9 0-3.5 1.6-3.5 3.5s1.6 3.5 3.5 3.5 3.5-1.6 3.5-3.5-1.6-3.5-3.5-3.5z" />
</symbol>
<symbol xmlns="http://www.w3.org/2000/svg" id="more"
      fill="#262626"
      viewBox="0 0 48 48"
    >
      <circle clipRule="evenodd" cx="8" cy="24" fillRule="evenodd" r="4.5" />
      <circle clipRule="evenodd" cx="24" cy="24" fillRule="evenodd" r="4.5" />
      <circle clipRule="evenodd" cx="40" cy="24" fillRule="evenodd" r="4.5" />
</symbol>
<symbol  xmlns="http://www.w3.org/2000/svg" id="home-active" fill="#262626" viewBox="0 0 48 48">
        <path d="M45.5 48H30.1c-.8 0-1.5-.7-1.5-1.5V34.2c0-2.6-2.1-4.6-4.6-4.6s-4.6 2.1-4.6 4.6v12.3c0 .8-.7 1.5-1.5 1.5H2.5c-.8 0-1.5-.7-1.5-1.5V23c0-.4.2-.8.4-1.1L22.9.4c.6-.6 1.6-.6 2.1 0l21.5 21.5c.3.3.4.7.4 1.1v23.5c.1.8-.6 1.5-1.4 1.5z" />
</symbol>
<symbol  xmlns="http://www.w3.org/2000/svg" id="home" fill="#262626" viewBox="0 0 48 48">
      <path d="M45.3 48H30c-.8 0-1.5-.7-1.5-1.5V34.2c0-2.6-2-4.6-4.6-4.6s-4.6 2-4.6 4.6v12.3c0 .8-.7 1.5-1.5 1.5H2.5c-.8 0-1.5-.7-1.5-1.5V23c0-.4.2-.8.4-1.1L22.9.4c.6-.6 1.5-.6 2.1 0l21.5 21.5c.4.4.6 1.1.3 1.6 0 .1-.1.1-.1.2v22.8c.1.8-.6 1.5-1.4 1.5zm-13.8-3h12.3V23.4L24 3.6l-20 20V45h12.3V34.2c0-4.3 3.3-7.6 7.6-7.6s7.6 3.3 7.6 7.6V45z" />
</symbol>
<symbol xmlns="http://www.w3.org/2000/svg" id="heart-active" viewBox="0 0 48 48">
        <path d="M34.6 3.1c-4.5 0-7.9 1.8-10.6 5.6-2.7-3.7-6.1-5.5-10.6-5.5C6 3.1 0 9.6 0 17.6c0 7.3 5.4 12 10.6 16.5.6.5 1.3 1.1 1.9 1.7l2.3 2c4.4 3.9 6.6 5.9 7.6 6.5.5.3 1.1.5 1.6.5s1.1-.2 1.6-.5c1-.6 2.8-2.2 7.8-6.8l2-1.8c.7-.6 1.3-1.2 2-1.7C42.7 29.6 48 25 48 17.6c0-8-6-14.5-13.4-14.5z" />
</symbol>
<symbol xmlns="http://www.w3.org/2000/svg" id="heart"
      fill="#262626"
      viewBox="0 0 48 48"
    >
      <path d="M34.6 6.1c5.7 0 10.4 5.2 10.4 11.5 0 6.8-5.9 11-11.5 16S25 41.3 24 41.9c-1.1-.7-4.7-4-9.5-8.3-5.7-5-11.5-9.2-11.5-16C3 11.3 7.7 6.1 13.4 6.1c4.2 0 6.5 2 8.1 4.3 1.9 2.6 2.2 3.9 2.5 3.9.3 0 .6-1.3 2.5-3.9 1.6-2.3 3.9-4.3 8.1-4.3m0-3c-4.5 0-7.9 1.8-10.6 5.6-2.7-3.7-6.1-5.5-10.6-5.5C6 3.1 0 9.6 0 17.6c0 7.3 5.4 12 10.6 16.5.6.5 1.3 1.1 1.9 1.7l2.3 2c4.4 3.9 6.6 5.9 7.6 6.5.5.3 1.1.5 1.6.5.6 0 1.1-.2 1.6-.5 1-.6 2.8-2.2 7.8-6.8l2-1.8c.7-.6 1.3-1.2 2-1.7C42.7 29.6 48 25 48 17.6c0-8-6-14.5-13.4-14.5z" />
</symbol>
<symbol xmlns="http://www.w3.org/2000/svg" id="explore-active" fill="#262626" viewBox="0 0 48 48">
        <path
          clipRule="evenodd"
          d="M24 0C10.8 0 0 10.8 0 24s10.8 24 24 24 24-10.8 24-24S37.2 0 24 0zm12.2 13.8l-7 14.8c-.1.3-.4.6-.7.7l-14.8 7c-.2.1-.4.1-.6.1-.4 0-.8-.2-1.1-.4-.4-.4-.6-1.1-.3-1.7l7-14.8c.1-.3.4-.6.7-.7l14.8-7c.6-.3 1.3-.2 1.7.3.5.4.6 1.1.3 1.7zm-15 7.4l-5 10.5 10.5-5-5.5-5.5z"
          fillRule="evenodd"
        />
</symbol>
<symbol xmlns="http://www.w3.org/2000/svg" id="explore"
      fill="#262626"
      viewBox="0 0 48 48"
    >
      <path
        clipRule="evenodd"
        d="M24 0C10.8 0 0 10.8 0 24s10.8 24 24 24 24-10.8 24-24S37.2 0 24 0zm0 45C12.4 45 3 35.6 3 24S12.4 3 24 3s21 9.4 21 21-9.4 21-21 21zm10.2-33.2l-14.8 7c-.3.1-.6.4-.7.7l-7 14.8c-.3.6-.2 1.3.3 1.7.3.3.7.4 1.1.4.2 0 .4 0 .6-.1l14.8-7c.3-.1.6-.4.7-.7l7-14.8c.3-.6.2-1.3-.3-1.7-.4-.5-1.1-.6-1.7-.3zm-7.4 15l-5.5-5.5 10.5-5-5 10.5z"
        fillRule="evenodd"
      />
</symbol>
<symbol xmlns="http://www.w3.org/2000/svg" id="direct-active" fill="#262626"  viewBox="0 0 48 48">
        <path d="M47.8 3.8c-.3-.5-.8-.8-1.3-.8h-45C.9 3.1.3 3.5.1 4S0 5.2.4 5.7l13.2 13c.5.4 1.1.6 1.7.3l16.6-8c.7-.3 1.6-.1 2 .5.4.7.2 1.6-.5 2l-15.6 9.9c-.5.3-.8 1-.7 1.6l4.6 19c.1.6.6 1 1.2 1.1h.2c.5 0 1-.3 1.3-.7l23.2-39c.5-.5.5-1.1.2-1.6z" />
</symbol>
<symbol xmlns="http://www.w3.org/2000/svg" id="direct"
      fill="#262626"
      viewBox="0 0 48 48"
    >
      <path d="M47.8 3.8c-.3-.5-.8-.8-1.3-.8h-45C.9 3.1.3 3.5.1 4S0 5.2.4 5.7l15.9 15.6 5.5 22.6c.1.6.6 1 1.2 1.1h.2c.5 0 1-.3 1.3-.7l23.2-39c.4-.4.4-1 .1-1.5zM5.2 6.1h35.5L18 18.7 5.2 6.1zm18.7 33.6l-4.4-18.4L42.4 8.6 23.9 39.7z" />
</symbol>
<symbol  xmlns="http://www.w3.org/2000/svg" id="comment"
      fill="#262626"
      viewBox="0 0 48 48"
    >
      <path
        d="M47.5 46.1l-2.8-11c1.8-3.3 2.8-7.1 2.8-11.1C47.5 11 37 .5 24 .5S.5 11 .5 24 11 47.5 24 47.5c4 0 7.8-1 11.1-2.8l11 2.8c.8.2 1.6-.6 1.4-1.4zm-3-22.1c0 4-1 7-2.6 10-.2.4-.3.9-.2 1.4l2.1 8.4-8.3-2.1c-.5-.1-1-.1-1.4.2-1.8 1-5.2 2.6-10 2.6-11.4 0-20.6-9.2-20.6-20.5S12.7 3.5 24 3.5 44.5 12.7 44.5 24z"
      />
</symbol>
<symbol xmlns="http://www.w3.org/2000/svg" id="add" fill="#262626" viewBox="0 0 48 48">
      <path d="M31.8 48H16.2c-6.6 0-9.6-1.6-12.1-4C1.6 41.4 0 38.4 0 31.8V16.2C0 9.6 1.6 6.6 4 4.1 6.6 1.6 9.6 0 16.2 0h15.6c6.6 0 9.6 1.6 12.1 4C46.4 6.6 48 9.6 48 16.2v15.6c0 6.6-1.6 9.6-4 12.1-2.6 2.5-5.6 4.1-12.2 4.1zM16.2 3C10 3 7.8 4.6 6.1 6.2 4.6 7.8 3 10 3 16.2v15.6c0 6.2 1.6 8.4 3.2 10.1 1.6 1.6 3.8 3.1 10 3.1h15.6c6.2 0 8.4-1.6 10.1-3.2 1.6-1.6 3.1-3.8 3.1-10V16.2c0-6.2-1.6-8.4-3.2-10.1C40.2 4.6 38 3 31.8 3H16.2z" />
      <path d="M36.3 25.5H11.7c-.8 0-1.5-.7-1.5-1.5s.7-1.5 1.5-1.5h24.6c.8 0 1.5.7 1.5 1.5s-.7 1.5-1.5 1.5z" />
      <path d="M24 37.8c-.8 0-1.5-.7-1.5-1.5V11.7c0-.8.7-1.5 1.5-1.5s1.5.7 1.5 1.5v24.6c0 .8-.7 1.5-1.5 1.5z" />
</symbol>
<symbol xmlns="http://www.w3.org/2000/svg" id="new-dialog" fill="#262626" viewBox="0 0 44 44" ><path d="M33.7 44.12H8.5a8.41 8.41 0 01-8.5-8.5v-25.2a8.41 8.41 0 018.5-8.5H23a1.5 1.5 0 010 3H8.5a5.45 5.45 0 00-5.5 5.5v25.2a5.45 5.45 0 005.5 5.5h25.2a5.45 5.45 0 005.5-5.5v-14.5a1.5 1.5 0 013 0v14.5a8.41 8.41 0 01-8.5 8.5z"></path><path d="M17.5 34.82h-6.7a1.5 1.5 0 01-1.5-1.5v-6.7a1.5 1.5 0 01.44-1.06L34.1 1.26a4.45 4.45 0 016.22 0l2.5 2.5a4.45 4.45 0 010 6.22l-24.3 24.4a1.5 1.5 0 01-1.02.44zm-5.2-3h4.58l23.86-24a1.45 1.45 0 000-2l-2.5-2.5a1.45 1.45 0 00-2 0l-24 23.86z"></path><path d="M38.2 14.02a1.51 1.51 0 01-1.1-.44l-6.56-6.56a1.5 1.5 0 012.12-2.12l6.6 6.6a1.49 1.49 0 010 2.12 1.51 1.51 0 01-1.06.4z"></path>
</symbol>
</svg>